<svg id="Iconly_Bulk_Location" data-name="Iconly/Bulk/Location" xmlns="http://www.w3.org/2000/svg" width="47.523" height="67.893" viewBox="0 0 47.523 67.893">
  <g id="Location" transform="translate(0 0)">
    <path id="Path_34175" d="M23.9,57.709h0a2.8,2.8,0,0,1-1.326-.4A62.646,62.646,0,0,1,6.153,41.868,31.322,31.322,0,0,1,0,24.219,24.327,24.327,0,0,1,11.988,3.181a23.385,23.385,0,0,1,23.879.2,24.626,24.626,0,0,1,8.573,9.077,25.185,25.185,0,0,1,3.083,12.2c-.148,7.6-4,15.764-10.837,23a63.652,63.652,0,0,1-11.4,9.572,3.981,3.981,0,0,1-1.381.489Zm-.167-41.252a7.951,7.951,0,0,0-5.7,2.4,8.3,8.3,0,0,0-1.763,8.964A8.043,8.043,0,0,0,23.732,32.9h.056a7.9,7.9,0,0,0,5.66-2.383,8.334,8.334,0,0,0-2.606-13.427A7.9,7.9,0,0,0,23.737,16.458Z" transform="translate(0 0)" fill="#757ae9"/>
    <ellipse id="Ellipse_743" cx="16.973" cy="3.395" rx="16.973" ry="3.395" transform="translate(6.789 61.104)" fill="#757ae9" opacity="0.4"/>
  </g>
</svg>
